# xmcd
#
# Track frame offsets:
#	150
#	13239
#	27970
#	45547
#	63558
#	77916
#	94068
#	107920
#	123332
#	136251
#	152089
#	164469
#
# Disc length: 2392 seconds
#
# Revision: 1
# Processed by: cddbd v1.5PL3 Copyright (c) Steve Scherf et al.
# Submitted via: audiograbber 1.82.02
#
DISCID=9c09560c
DTITLE=OJ Hansen - Just The Thought Of You
DYEAR=2004
DGENRE=Country
TTITLE0=You`re gonna Love Me
TTITLE1=Only A Good Woman Can
TTITLE2=Just The Tought Of You
TTITLE3=Please
TTITLE4=I Knew Enough To Fall In Love With You
TTITLE5=Evrybody Loves Somebody
TTITLE6=Heartaches By The Number
TTITLE7=The Same Boat
TTITLE8=Hold That Tought
TTITLE9=Evry Boy And Girl
TTITLE10=Coboys Don`t Get Lucky All The Time
TTITLE11=Echo Canyon
EXTD=
EXTT0=
EXTT1=
EXTT2=
EXTT3=
EXTT4=
EXTT5=
EXTT6=
EXTT7=
EXTT8=
EXTT9=
EXTT10=
EXTT11=
PLAYORDER=
